<svg width="24" height="24" viewBox="0 0 24 24" fill="none" xmlns="http://www.w3.org/2000/svg">
<path fill-rule="evenodd" clip-rule="evenodd" d="M12.9597 12.9598C12.9597 13.4897 12.5297 13.9198 11.9997 13.9198C11.4698 13.9198 11.0397 13.4897 11.0397 12.9598V8.15981C11.0397 7.62989 11.4698 7.1998 11.9997 7.1998C12.5297 7.1998 12.9597 7.62989 12.9597 8.15981V12.9598ZM11.9997 16.7998C11.4698 16.7998 11.0397 16.3698 11.0397 15.8398C11.0397 15.3099 11.4698 14.8798 11.9997 14.8798C12.5297 14.8798 12.9597 15.3099 12.9597 15.8398C12.9597 16.3698 12.5297 16.7998 11.9997 16.7998ZM12 2.3999C6.69793 2.3999 2.39999 6.69784 2.39999 11.9999C2.39999 17.302 6.69793 21.6 12 21.6C17.3021 21.6 21.6001 17.302 21.6001 11.9999C21.6001 6.69784 17.3021 2.3999 12 2.3999Z" fill="#BD2C00"/>
</svg>
